# xmcd CD database file
#
# Track frame offsets:
#	150
#	16861
#	38389
#	55069
#	70975
#	89599
#	111931
#	126465
#	147469
#
# Disc length: 2196 seconds
#
# Revision: 0
# Processed by: cddbd v1.5.2PL0 Copyright (c) Steve Scherf et al.
# Submitted via: CDex 1.78
#
DISCID=7c089209
DTITLE=Zijlstra - Gered door de Band
DYEAR=2016
DGENRE=Jazz
TTITLE0=Havenlichten
TTITLE1=Wende's blues
TTITLE2=Niemand zijn
TTITLE3=Schaam je!
TTITLE4=Those were the days
TTITLE5=Vondelserenade
TTITLE6=Duisternis
TTITLE7=Denk Zoek Twijfel
TTITLE8=Laat me niet varen
EXTD=YEAR: 2016
EXTT0=
EXTT1=
EXTT2=
EXTT3=
EXTT4=
EXTT5=
EXTT6=
EXTT7=
EXTT8=
PLAYORDER=
